<svg xmlns="http://www.w3.org/2000/svg" version="1.1" xmlns:xlink="http://www.w3.org/1999/xlink" xmlns:svgjs="http://svgjs.dev/svgjs" width="1440" height="560" preserveAspectRatio="none" viewBox="0 0 1440 560"><g mask="url(&quot;#SvgjsMask1000&quot;)" fill="none"><rect width="1440" height="560" x="0" y="0" fill="#0e2a47"></rect><path d="M694.04 136.64a37.61 37.61 0 1 0 65.6-36.8z" fill="#037b0b"></path><path d="M180.61 60.58 a19.97 19.97 0 1 0 39.94 0 a19.97 19.97 0 1 0 -39.94 0z" stroke="#e73635"></path><path d="M1309.97 479.79 a40.2 40.2 0 1 0 80.4 0 a40.2 40.2 0 1 0 -80.4 0z" fill="#e73635"></path><path d="M1324.26 292.95a48.46 48.46 0 1 0 90.08-35.75z" stroke="#e73635"></path><path d="M44.07 2.06L67.51 2.06L67.51 33.89L44.07 33.89z" stroke="#037b0b"></path><path d="M1201.81 523.87 a32.13 32.13 0 1 0 64.26 0 a32.13 32.13 0 1 0 -64.26 0z" stroke="#d3b714"></path><path d="M866.96 318.72L894.31 318.72L894.31 362.49L866.96 362.49z" stroke="#037b0b"></path><path d="M974.71 479.7L1026.35 479.7L1026.35 531.34L974.71 531.34z" fill="#e73635"></path><path d="M79.85 303.35L104.01 303.35L104.01 327.51L79.85 327.51z" stroke="#e73635"></path><path d="M1194.09 255.4 a48.63 48.63 0 1 0 97.26 0 a48.63 48.63 0 1 0 -97.26 0z" stroke="#037b0b"></path><path d="M320.17 19.4L344.04 19.4L344.04 37.26L320.17 37.26z" fill="#e73635"></path><path d="M463.7 154.81L465.35 154.81L465.35 156.46L463.7 156.46z" stroke="#037b0b"></path><path d="M75.85 389.6L90.85 389.6L90.85 394.51L75.85 394.51z" fill="#e73635"></path><path d="M757.96 210.07 a46.8 46.8 0 1 0 93.6 0 a46.8 46.8 0 1 0 -93.6 0z" stroke="#037b0b"></path><path d="M1055.21 258.29L1094.99 258.29L1094.99 298.07L1055.21 298.07z" fill="#d3b714"></path><path d="M660.93 284.16 a19.72 19.72 0 1 0 39.44 0 a19.72 19.72 0 1 0 -39.44 0z" stroke="#d3b714"></path><path d="M1000.66 536.19L1027.84 536.19L1027.84 568.15L1000.66 568.15z" fill="#e73635"></path><path d="M340.75 129.2a15.99 15.99 0 1 0 7.04 31.2z" fill="#037b0b"></path><path d="M173.58 393.29a49.84 49.84 0 1 0-99.34 8.18z" stroke="#e73635"></path><path d="M1127.47-3.14a14.35 14.35 0 1 0 14.37 24.85z" fill="#037b0b"></path><path d="M550.16 390.94 a38.97 38.97 0 1 0 77.94 0 a38.97 38.97 0 1 0 -77.94 0z" fill="#d3b714"></path><path d="M777.7 485.68 a45.73 45.73 0 1 0 91.46 0 a45.73 45.73 0 1 0 -91.46 0z" stroke="#e73635"></path><path d="M874.67 297.23 a20.71 20.71 0 1 0 41.42 0 a20.71 20.71 0 1 0 -41.42 0z" fill="#037b0b"></path><path d="M1373.35 390.31L1404.19 390.31L1404.19 421.15L1373.35 421.15z" fill="#e73635"></path><path d="M-25.96 22.25a36.31 36.31 0 1 0 59.08-42.22z" fill="#d3b714"></path><path d="M725.94 42.36L770.64 42.36L770.64 59.14L725.94 59.14z" fill="#d3b714"></path><path d="M118.46 541.03L165.5 541.03L165.5 588.07L118.46 588.07z" stroke="#d3b714"></path><path d="M242.46 582.98a36.37 36.37 0 1 0 39.02-61.39z" stroke="#d3b714"></path><path d="M648.7 163.04L674.98 163.04L674.98 214.4L648.7 214.4z" fill="#037b0b"></path><path d="M283.72 58.76a36.21 36.21 0 1 0 45.35-56.46z" stroke="#d3b714"></path><path d="M317.18 324.8L346.78 324.8L346.78 327.04L317.18 327.04z" stroke="#e73635"></path><path d="M70.46 246.94 a29.82 29.82 0 1 0 59.64 0 a29.82 29.82 0 1 0 -59.64 0z" fill="#e73635"></path><path d="M1011.41 248.44L1014.77 248.44L1014.77 295.66L1011.41 295.66z" stroke="#e73635"></path></g><defs><mask id="SvgjsMask1000"><rect width="1440" height="560" fill="#ffffff"></rect></mask></defs></svg>